<?xml version="1.0" standalone="no"?>
<!DOCTYPE svg PUBLIC "-//W3C//DTD SVG 20010904//EN"
 "http://www.w3.org/TR/2001/REC-SVG-20010904/DTD/svg10.dtd">
<svg version="1.0" xmlns="http://www.w3.org/2000/svg"
 width="512.000000pt" height="512.000000pt" viewBox="0 0 512.000000 512.000000"
 preserveAspectRatio="xMidYMid meet">
<metadata>
Created by potrace 1.14, written by Peter Selinger 2001-2017
</metadata>
<g transform="translate(0.000000,512.000000) scale(0.100000,-0.100000)"
fill="#000000" stroke="none">
<path d="M1207 4734 c-1 -1 -32 -4 -68 -7 -373 -32 -699 -349 -746 -727 -8
-65 -9 -2827 -1 -2885 51 -372 364 -682 728 -723 30 -4 690 -7 1465 -7 1335 0
1414 1 1490 19 89 20 218 77 292 127 174 120 289 287 345 500 l22 84 0 1420
c1 781 -3 1446 -7 1478 -4 32 -18 92 -33 135 -103 307 -344 513 -674 578 -27
5 -2806 13 -2813 8z m10 -595 c15 -5 180 -162 366 -347 l337 -337 -332 -333
c-183 -183 -345 -340 -360 -348 -55 -29 -141 -15 -194 32 -60 53 -80 138 -50
207 8 18 107 124 220 237 l206 205 -210 210 c-115 115 -214 223 -220 238 -42
114 49 245 172 247 20 0 49 -5 65 -11z m1748 -1082 c60 -21 98 -74 103 -147 6
-82 -4 -125 -39 -165 -49 -55 -71 -58 -417 -58 l-312 0 -40 27 c-61 40 -80 78
-80 158 0 37 4 78 10 92 12 32 57 78 90 93 39 17 634 17 685 0z"/>
</g>
</svg>
